# xmcd CD database file
#
# Track frame offsets:
#	150
#	21532
#	49700
#	84402
#	125282
#	147285
#	169110
#	192142
#	231915
#	254975
#	274212
#
# Disc length: 3940 seconds
#
# Revision: 2
# Processed by: cddbd v1.5.2PL0 Copyright (c) Steve Scherf et al.
# Submitted via: CDex 1.51
#
DISCID=a00f620b
DTITLE=T-Bone Walker - Stormy Monday
DYEAR=1996
DGENRE=Blues
TTITLE0=Every Day I Have The Blues
TTITLE1=I Woke Up This Morning
TTITLE2=When I Grow Up
TTITLE3=Long Lost Lover
TTITLE4=Shake It Baby
TTITLE5=Stormy Monday Blues
TTITLE6=Why My Baby
TTITLE7=Late Blues
TTITLE8=Sail On
TTITLE9=T-Bone Blues Special
TTITLE10=Treat Me So Low Down
EXTD=Recorded 1968 YEAR: 1996
EXTT0=
EXTT1=
EXTT2=
EXTT3=
EXTT4=
EXTT5=
EXTT6=
EXTT7=
EXTT8=
EXTT9=
EXTT10=
PLAYORDER=
